<?xml version="1.0" encoding="utf-8" ?><svg xmlns="http://www.w3.org/2000/svg" xmlns:xlink="http://www.w3.org/1999/xlink" width="512" height="512" viewBox="0 0 512 512"><path fill="#242323" transform="scale(0.5 0.5)" d="M0 0L1024 0L1024 1024L0 1024L0 0Z"/><path fill="#411B19" transform="scale(0.5 0.5)" d="M387.56 165.761C403.072 158.38 443.122 156.754 459.332 162.534C472.998 167.407 512.058 184.483 518.392 197.487C519.879 200.539 520.521 204.132 519.381 207.41C517.634 212.436 512.745 215.567 508.109 217.645C496.487 222.853 474.785 224.837 462.605 221.778L461.905 221.389L461.097 221.422C458.156 221.527 451.581 220.596 450.445 220.916C448.459 229.274 473.689 251.869 481.649 255.143C484.371 256.263 494.698 261.037 495.475 262.711C494.45 264.497 479.147 272.452 476.195 274.57C466.932 281.214 460.496 290.087 463.754 302.088C467.967 317.247 483.405 324.886 496.974 330.099C499.637 331.122 503.828 332.395 506.165 333.823C513.383 334.674 522.957 337.685 530.467 338.862C539.959 340.349 548.989 341.354 558.493 342.827C560.78 342.105 568.681 343.253 571.602 343.644C599.122 347.213 625.816 355.522 650.5 368.204C658.782 372.508 674.698 383.942 682.195 385.418C684.894 385.949 688.259 385.654 691.05 385.617C696.622 385.542 702.009 384.777 707.339 383.129C713.492 381.225 719.316 378.363 724.862 375.114C734.833 369.272 758.34 350.957 769.879 356.639C777.537 360.41 815.395 415.252 821.559 425.953C822.845 428.186 823.949 430.592 824.488 433.12C825.05 435.749 825.041 439.853 823.476 442.173C823.185 442.605 822.917 442.751 822.524 443.026C821.059 448.239 789.56 475.943 784.165 484.721C783.374 497.057 790.985 511.936 793.736 524.385C795.403 531.928 796.677 539.657 797.69 547.316C798.274 551.737 798.448 556.465 799.485 560.791C799.848 562.306 800.303 563.512 801.322 564.7C808.836 573.462 852.269 580.553 859.234 590.675C861.412 593.84 861.426 599.618 861.234 603.407C860.363 620.568 856.777 638.169 854.178 655.164C852.677 664.975 851.931 676.116 849.023 685.579C848.343 687.793 846.553 689.568 844.865 691.074C842.889 692.836 840.419 693.606 837.855 694.089C832.973 695.009 827.776 694.682 822.818 694.818C818.221 694.943 813.636 695.389 809.039 695.516C799.594 695.776 789.035 695.407 779.757 697.269C772.741 703.424 766.372 719.908 761.404 728.738C757.024 736.524 752.283 743.934 746.915 751.079C743.404 755.752 733.567 765.948 732.863 771.653C731.592 781.942 758.229 816.508 757.069 830.471C756.691 835.027 754.022 838.632 750.71 841.607C745.976 845.86 740.542 849.622 735.501 853.516C724.562 862.103 713.409 870.414 702.053 878.442C696.435 882.46 690.069 887.497 683.964 890.595C681.617 891.786 675.723 891.187 672.865 891.051L672.091 890.603C661.487 884.397 648.176 869.365 638.05 861.35C627.687 853.147 627.005 847.986 612.152 854.788C591.138 863.53 568.166 867.569 545.856 871.406C540.709 872.989 538.378 880.763 536.968 885.048C533.605 895.27 530.656 904.27 526.999 914.394C524.627 920.96 522.628 931.628 514.792 934.148C512.353 934.637 508.639 935.114 506.186 934.881C479.868 932.375 453.534 929.577 427.431 925.315C410.86 922.61 411.919 910.813 411.315 897.024C411.215 894.753 410.983 890.893 411.447 888.764L411.384 888.099C409.029 884.536 411.21 861.977 407.585 856.448C403.978 850.944 394.932 848.079 388.96 845.278C376.641 839.418 364.725 832.747 353.289 825.31C348.1 821.937 340.49 815.214 335.22 813.055C333.367 812.296 330.712 812.494 328.778 812.896C313.797 816.007 283.148 840.491 269.857 836.671C266.867 835.812 264.267 834.017 262.09 831.829C256.593 826.304 251.779 819.271 246.87 813.178C239.08 803.52 231.414 793.763 223.873 783.91C219.905 778.764 215.188 773.461 212.094 767.765C210.331 764.517 209.293 760.747 210.186 757.07C213.125 744.963 246.871 716.687 249.122 707.618C249.683 705.357 248.989 702.664 248.333 700.495C246.709 695.12 244.115 689.861 241.963 684.656C239.114 677.74 236.657 670.67 234.602 663.478C231.391 652.028 229.358 640.177 226.858 628.669C224.39 621.363 215.205 620.321 209.163 618.118C195.297 613.061 179.096 610.898 166.592 603.138C165.026 602.166 163.391 599.283 162.505 597.764C162.725 591.98 162.163 585.448 162.608 579.693C163.628 566.483 165.284 553.367 166.758 540.184C167.933 530.277 168.542 520.143 170.255 510.313C171.505 503.143 175.743 498.759 182.929 497.608C189.579 496.542 196.373 496.073 203.078 495.5C210.507 494.865 218.225 493.615 225.65 493.662L225.853 493.679C230.72 492.121 233.259 493.259 238.691 490.459C241.531 485.028 244.472 476.884 247.023 471.038C250.964 462.124 255.325 453.401 260.09 444.899C264.797 436.414 274.63 423.697 276.674 416.426C274.244 405.642 255.295 379.906 249.9 368.39C247.789 363.886 246.778 361.037 248.088 355.78C249.175 351.42 266.557 334.374 269.652 332.859L269.879 332.637C271.629 330.103 291.14 312.569 293.894 311.604L294.457 311.118C297.936 306.621 304.095 304.22 306.376 299.742C306.251 298.073 306.147 298.174 305.07 296.84C291.227 290.4 272.82 303.702 261.009 307.802L260.299 307.394C260.583 305.832 261.176 305.448 262.215 304.068L262.621 303.036C274.579 281.175 303.842 256.539 326.459 245.521C330.23 243.228 346.462 237.676 348.463 234.924C360.097 218.926 316.03 225.466 312.194 225.955C322.261 215.577 336.422 206.954 349.823 201.681C355.068 199.617 379.699 191.16 383.446 192.814L383.966 192.759C385.633 189.626 406.45 190.557 410.604 187.604C417.279 182.858 410.33 178.554 409.051 175.56C406.088 174.283 402.985 172.498 399.942 171.052C395.884 169.125 391.48 167.611 387.56 165.761Z"/><path fill="#413231" transform="scale(0.5 0.5)" d="M782.97 485.169C787.258 477.57 804.239 462.487 810.459 455.34C811.463 454.186 821.389 443.934 822.524 443.026C821.059 448.239 789.56 475.943 784.165 484.721C783.374 497.057 790.985 511.936 793.736 524.385C795.403 531.928 796.677 539.657 797.69 547.316C798.274 551.737 798.448 556.465 799.485 560.791C799.848 562.306 800.303 563.512 801.322 564.7C808.836 573.462 852.269 580.553 859.234 590.675C861.412 593.84 861.426 599.618 861.234 603.407C860.363 620.568 856.777 638.169 854.178 655.164C852.677 664.975 851.931 676.116 849.023 685.579C848.343 687.793 846.553 689.568 844.865 691.074C842.889 692.836 840.419 693.606 837.855 694.089C832.973 695.009 827.776 694.682 822.818 694.818C818.221 694.943 813.636 695.389 809.039 695.516C799.594 695.776 789.035 695.407 779.757 697.269C772.741 703.424 766.372 719.908 761.404 728.738C757.024 736.524 752.283 743.934 746.915 751.079C743.404 755.752 733.567 765.948 732.863 771.653C731.592 781.942 758.229 816.508 757.069 830.471C756.691 835.027 754.022 838.632 750.71 841.607C745.976 845.86 740.542 849.622 735.501 853.516C724.562 862.103 713.409 870.414 702.053 878.442C696.435 882.46 690.069 887.497 683.964 890.595C681.617 891.786 675.723 891.187 672.865 891.051L672.091 890.603C661.487 884.397 648.176 869.365 638.05 861.35C627.687 853.147 627.005 847.986 612.152 854.788C591.138 863.53 568.166 867.569 545.856 871.406C540.709 872.989 538.378 880.763 536.968 885.048C533.605 895.27 530.656 904.27 526.999 914.394C524.627 920.96 522.628 931.628 514.792 934.148C512.353 934.637 508.639 935.114 506.186 934.881C479.868 932.375 453.534 929.577 427.431 925.315C410.86 922.61 411.919 910.813 411.315 897.024C411.215 894.753 410.983 890.893 411.447 888.764C413.884 899.014 410.074 912.419 417.328 919.785C418.614 921.092 421.129 922.917 422.945 923.313C439.578 926.493 453.319 928.553 470.612 930.174C481.281 931.175 506.486 935.874 516.244 932.464C521.436 930.649 525.793 915.22 527.802 909.164C530.519 900.929 533.331 892.725 536.238 884.555C537.106 882.106 539.742 874.339 541.59 873.066C548.714 868.157 561.995 868.195 570.842 865.919C580.338 863.477 589.303 861.848 598.528 858.74C605.553 856.257 612.319 853.388 619.452 851.209C628.021 848.591 632.489 855.464 638.341 860.424C649.058 869.507 659.261 880.142 670.602 888.409C680.423 895.568 692.862 883.981 700.683 878.357C710.032 871.715 719.25 864.893 728.333 857.892C736.356 851.752 745.725 845.635 752.675 838.309C755.408 835.427 756.84 830.067 756.171 826.173C754.025 813.678 732.053 782.81 732.042 772.477C732.035 766.583 747.679 748.47 751.801 742.448C756.255 735.941 760.257 729.033 764.023 722.106C766.718 717.147 773.075 702.002 776.317 698.933C778.122 697.225 780.559 696.322 782.955 695.838C787.612 694.898 792.758 695.118 797.519 694.938L824.458 693.96C828.849 693.812 833.76 694.037 838.041 693.039C840.888 692.375 843.572 691.138 845.606 688.989C847.501 686.987 848.37 684.52 849.036 681.893C851.302 672.958 851.967 663.129 853.352 653.987C855.638 638.892 861.149 611.322 860.441 597.002C860.251 593.175 858.144 590.189 855.134 587.949C851.071 584.925 845.718 583.553 840.987 581.907C833.096 579.16 806.142 570.789 801.426 566.165C799.249 564.031 798.376 561.049 797.953 558.104C797.254 553.236 797.12 548.281 796.4 543.419C795.535 537.578 794.229 531.692 792.955 525.925C790.561 515.09 782.768 495.358 782.95 486.019L782.97 485.169Z"/><path fill="#413231" transform="scale(0.5 0.5)" d="M162.505 597.764C162.725 591.98 162.163 585.448 162.608 579.693C163.628 566.483 165.284 553.367 166.758 540.184C167.933 530.277 168.542 520.143 170.255 510.313C171.505 503.143 175.743 498.759 182.929 497.608C189.579 496.542 196.373 496.073 203.078 495.5C210.507 494.865 218.225 493.615 225.65 493.662C225.512 493.766 225.385 493.887 225.236 493.973C223.109 495.193 218.885 495.091 216.386 495.308C207.889 496.045 186.306 496.751 179.289 499.76C175.885 501.22 172.93 503.952 171.68 507.501C169.525 513.622 169.411 523.278 168.67 529.825C166.559 548.47 162.956 572.872 162.981 591.152C162.984 593.689 163.004 596.531 164.248 598.809C170.356 609.999 211.982 614.294 223.375 622.538C225.253 623.897 226.816 625.678 227.577 627.889C229.315 632.943 229.819 638.726 230.823 643.976C232.103 650.667 233.756 657.432 235.643 663.977C238.001 672.152 241.208 680.321 244.413 688.192C246.228 692.65 248.484 697.199 249.746 701.846C250.226 703.613 250.604 705.434 250.116 707.242C247.084 718.468 215.109 743.953 211.494 756.291C210.314 760.32 211.1 763.855 212.997 767.498C217.412 775.974 225.724 784.809 231.695 792.436C238.57 801.321 245.559 810.117 252.662 818.822C270.082 840.232 269.599 840.782 294.881 827.956L315.758 817.452C321.664 814.445 330.828 808.748 336.949 812.889C345.015 818.346 352.277 823.828 360.721 828.865C369.218 833.982 377.912 838.766 386.784 843.204C390.893 845.217 406.041 851.421 407.703 854.5C410.767 860.176 411.776 881.821 411.384 888.099C409.029 884.536 411.21 861.977 407.585 856.448C403.978 850.944 394.932 848.079 388.96 845.278C376.641 839.418 364.725 832.747 353.289 825.31C348.1 821.937 340.49 815.214 335.22 813.055C333.367 812.296 330.712 812.494 328.778 812.896C313.797 816.007 283.148 840.491 269.857 836.671C266.867 835.812 264.267 834.017 262.09 831.829C256.593 826.304 251.779 819.271 246.87 813.178C239.08 803.52 231.414 793.763 223.873 783.91C219.905 778.764 215.188 773.461 212.094 767.765C210.331 764.517 209.293 760.747 210.186 757.07C213.125 744.963 246.871 716.687 249.122 707.618C249.683 705.357 248.989 702.664 248.333 700.495C246.709 695.12 244.115 689.861 241.963 684.656C239.114 677.74 236.657 670.67 234.602 663.478C231.391 652.028 229.358 640.177 226.858 628.669C224.39 621.363 215.205 620.321 209.163 618.118C195.297 613.061 179.096 610.898 166.592 603.138C165.026 602.166 163.391 599.283 162.505 597.764Z"/><path fill="#413231" transform="scale(0.5 0.5)" d="M558.493 342.827C560.78 342.105 568.681 343.253 571.602 343.644C599.122 347.213 625.816 355.522 650.5 368.204C658.782 372.508 674.698 383.942 682.195 385.418C684.894 385.949 688.259 385.654 691.05 385.617C696.622 385.542 702.009 384.777 707.339 383.129C713.492 381.225 719.316 378.363 724.862 375.114C734.833 369.272 758.34 350.957 769.879 356.639C777.537 360.41 815.395 415.252 821.559 425.953C822.845 428.186 823.949 430.592 824.488 433.12C825.05 435.749 825.041 439.853 823.476 442.173C823.185 442.605 822.917 442.751 822.524 443.026C823.185 439.71 824.535 433.788 823.054 430.692C819.68 423.635 814.615 416.963 810.18 410.493C798.855 394.186 787.178 377.707 774.991 362.058C764.365 349.455 749.444 361.195 739.129 367.412C723.609 376.917 712.096 385.198 693.428 386.441C675.355 387.645 671.93 381.024 657.29 372.807C626.337 355.433 594.131 346.75 558.996 343.464L558.493 342.827Z"/><path fill="#413231" transform="scale(0.5 0.5)" d="M312.194 225.955C322.261 215.577 336.422 206.954 349.823 201.681C355.068 199.617 379.699 191.16 383.446 192.814C354.408 199.583 337.291 205.304 314.093 224.826C321.462 224.053 359.475 219.032 349.431 234.766C347.888 237.184 325.569 247.01 320.441 249.852C307.401 256.988 295.474 265.994 285.041 276.582C280.668 280.971 276.671 285.464 272.609 290.121C270.428 292.622 265.003 302.282 262.621 303.036C274.579 281.175 303.842 256.539 326.459 245.521C330.23 243.228 346.462 237.676 348.463 234.924C360.097 218.926 316.03 225.466 312.194 225.955Z"/><path fill="#413231" transform="scale(0.5 0.5)" d="M387.56 165.761C403.072 158.38 443.122 156.754 459.332 162.534C472.998 167.407 512.058 184.483 518.392 197.487C519.879 200.539 520.521 204.132 519.381 207.41C517.634 212.436 512.745 215.567 508.109 217.645C496.487 222.853 474.785 224.837 462.605 221.778C465.679 221.418 469.102 221.629 472.338 221.776C485.03 222.48 495.722 221.742 507.332 216.914C525.622 209.306 520.152 194.607 505.936 186.179C492.201 178.036 470.258 166.778 455.276 162.152C443.914 158.644 399.746 159.896 390.347 165.437C390.561 166.267 405.409 171.756 409.051 175.56C406.088 174.283 402.985 172.498 399.942 171.052C395.884 169.125 391.48 167.611 387.56 165.761Z"/><path fill="#413231" transform="scale(0.5 0.5)" d="M276.674 416.426C274.244 405.642 255.295 379.906 249.9 368.39C247.789 363.886 246.778 361.037 248.088 355.78C249.175 351.42 266.557 334.374 269.652 332.859C265.246 340.645 244.622 351.271 248.81 362.664C255.565 380.875 270.222 396.672 277.331 414.707C278.19 416.888 274.978 423.402 273.524 425.494C261.199 443.232 251.19 462.262 243.416 482.418C242.462 484.892 241.009 489.015 238.691 490.459C241.531 485.028 244.472 476.884 247.023 471.038C250.964 462.124 255.325 453.401 260.09 444.899C264.797 436.414 274.63 423.697 276.674 416.426Z"/><path fill="#413231" transform="scale(0.5 0.5)" d="M448.325 219.423C452.58 219.846 457.62 220.741 461.905 221.389L461.097 221.422C458.156 221.527 451.581 220.596 450.445 220.916C448.459 229.274 473.689 251.869 481.649 255.143C484.371 256.263 494.698 261.037 495.475 262.711C494.45 264.497 479.147 272.452 476.195 274.57C466.932 281.214 460.496 290.087 463.754 302.088C467.967 317.247 483.405 324.886 496.974 330.099C499.637 331.122 503.828 332.395 506.165 333.823C503.259 334.445 492.406 329.419 489.375 328.122C459.586 315.375 449.544 287.16 482.276 269.507C484.532 268.29 493.151 264.605 494.138 262.603C492.897 260.981 485.24 257.94 482.839 256.607C468.519 248.656 453.227 235.566 448.325 219.423Z"/><path fill="#413231" transform="scale(0.5 0.5)" d="M262.215 304.068L262.093 305.792L262.652 306.285C274.546 301.199 297.562 286.294 308.575 299.401C306.388 301.941 297.351 309.742 294.457 311.118C297.936 306.621 304.095 304.22 306.376 299.742C306.251 298.073 306.147 298.174 305.07 296.84C291.227 290.4 272.82 303.702 261.009 307.802L260.299 307.394C260.583 305.832 261.176 305.448 262.215 304.068Z"/><path fill="#413231" transform="scale(0.5 0.5)" d="M409.051 175.56C410.768 176.245 412.955 178.56 413.65 180.011C414.434 181.636 414.47 183.522 413.748 185.175C412.536 187.896 408.932 189.529 406.183 189.851C398.879 190.708 391.248 191.998 383.966 192.759C385.633 189.626 406.45 190.557 410.604 187.604C417.279 182.858 410.33 178.554 409.051 175.56Z"/><path fill="#413231" transform="scale(0.5 0.5)" d="M269.879 332.637C271.629 330.103 291.14 312.569 293.894 311.604C292.242 313.792 272.044 331.52 269.879 332.637Z"/><path fill="#413231" transform="scale(0.5 0.5)" d="M225.853 493.679C230.72 492.121 233.259 493.259 238.691 490.459C235.78 493.385 229.795 494.681 225.853 493.679Z"/><path fill="#A27D7A" transform="scale(0.5 0.5)" d="M499.723 376.385C616.702 369.374 717.192 458.571 724.111 575.555C731.03 692.539 641.755 792.96 524.765 799.787C407.905 806.607 307.62 717.452 300.709 600.597C293.797 483.743 382.874 383.388 499.723 376.385Z"/><path fill="#411B19" transform="scale(0.5 0.5)" d="M507.825 379.87C622.765 377.32 718.023 468.4 720.627 583.338C723.231 698.276 632.194 793.576 517.258 796.233C402.246 798.892 306.869 707.783 304.264 592.77C301.658 477.757 392.811 382.423 507.825 379.87Z"/><path fill="#413231" transform="scale(0.5 0.5)" d="M484.431 387.489C504.728 383.621 546.414 385.076 565.578 392.633C593.314 400.825 617.497 412.285 640.332 430.364C640.401 430.461 640.47 430.558 640.539 430.655C645.374 433.529 658.587 446.012 661.502 450.389L663.652 452.712C666.516 455.252 672.712 462.735 675.031 466.208C675.531 467.286 679.953 473.491 680.96 474.886C685.312 480.914 689.186 488.483 692.866 494.436C695.12 498.082 701.802 514.98 702.755 516.27C704.601 520.217 705.935 524.384 706.724 528.669C708.418 533.351 709.856 539.425 710.899 544.313C712.21 548.568 714.887 562.909 714.395 567.169L714.566 567.684C715.194 570.147 716.283 579.668 715.098 581.766L714.122 581.918C716.44 583.646 715.192 589.05 715.299 592.04C715.782 596.922 715.437 609.972 713.985 614.541C713.224 619.378 710.257 632.919 709.997 636.424C709.317 639.881 709.127 641.044 707.769 644.324C704.63 661.533 693.109 680.662 685.05 695.678C683.801 697.585 681.672 701.077 680.194 702.609L677.536 706.646C675.887 709.018 672.262 714.201 670.156 716.087C668.445 718.28 666.872 720.131 665.053 722.223C658.743 729.973 646.013 741.716 638.065 747.65C623.286 758.695 608.483 768.146 591.295 775.112C590.041 775.62 585.055 777.726 584.158 777.822C580.72 779.312 579.056 779.964 575.464 780.97C572.355 781.872 561.76 785.118 559.043 785.368C556.731 786.095 555.385 786.56 552.963 786.951L552.405 786.948C548.724 788.045 540.444 789.395 536.569 789.399L535.754 789.407C533.255 790.037 529.015 790.414 526.362 790.496L525.054 790.593C522.556 791.54 502.136 791.215 499.011 790.568L498.667 790.357C495.744 790.792 490.742 789.999 487.762 789.573C484.639 788.974 477.605 787.705 474.628 787.534C468.472 786.365 462.392 784.827 456.421 782.929L455.078 782.504C442.26 778.381 430.953 774.222 418.946 768.008C383.874 749.857 350.772 718.337 332.72 683.066C331.555 681.954 328.128 674.906 327.706 673.02C326.182 669.65 324.211 665.603 323.148 662.142C320.309 656.659 316.191 642.55 314.932 636.372C314.265 633.579 313.704 631.128 313.187 628.295C306.832 610.478 308.468 574.474 311.371 555.515C312.414 553.313 312.28 554.403 312.03 552.165C312.609 546.186 316.974 528.613 319.743 523.211C320.259 520.466 321.658 516.957 322.708 514.308C339.163 472.795 368.764 437.814 406.982 414.717C411.045 412.313 418.113 408.084 422.283 406.289C434.202 397.859 468.337 389.262 483.529 387.582L484.431 387.489Z"/><path fill="#7E4C4A" transform="scale(0.5 0.5)" d="M484.431 387.489C504.728 383.621 546.414 385.076 565.578 392.633C562.449 394.084 538.041 386.998 534.381 387.588C526.452 388.868 527.679 386.328 523.027 386.256L524.874 386.532C517.543 386.664 510.211 386.786 502.88 386.863C497.664 386.918 489.314 390.124 484.431 387.489Z"/><path fill="#7E4C4A" transform="scale(0.5 0.5)" d="M422.283 406.289C434.202 397.859 468.337 389.262 483.529 387.582L483.091 388.521C476.393 390.628 467.963 391.747 461.052 393.503C451.892 395.829 442.567 399.109 433.676 402.342C429.752 403.769 425.376 407.502 422.283 406.289Z"/><path fill="#7E4C4A" transform="scale(0.5 0.5)" d="M311.371 555.515C313.187 558.876 307.777 592.97 310.292 600.163C310.449 600.612 313.43 627.444 313.187 628.295C306.832 610.478 308.468 574.474 311.371 555.515Z"/><path fill="#7E4C4A" transform="scale(0.5 0.5)" d="M638.065 747.65C637.406 746.647 637.531 747.161 637.527 746.159C642.723 741.697 648.691 737.003 653.565 732.249C657.025 728.873 660.134 724.878 663.877 721.297L665.053 722.223C658.743 729.973 646.013 741.716 638.065 747.65Z"/><path fill="#7E4C4A" transform="scale(0.5 0.5)" d="M640.539 430.655C645.374 433.529 658.587 446.012 661.502 450.389L660.484 450.801C656.782 447.827 645.264 436.112 640.75 432.135C640.68 431.642 640.61 431.149 640.539 430.655Z"/><path fill="#7E4C4A" transform="scale(0.5 0.5)" d="M499.011 790.568C502.93 789.553 520.993 788.192 523.922 790.493L525.054 790.593C522.556 791.54 502.136 791.215 499.011 790.568Z"/><path fill="#7E4C4A" transform="scale(0.5 0.5)" d="M319.743 523.211C320.214 525.204 313.491 550.425 312.03 552.165C312.609 546.186 316.974 528.613 319.743 523.211Z"/><path fill="#7E4C4A" transform="scale(0.5 0.5)" d="M715.299 592.04C715.782 596.922 715.437 609.972 713.985 614.541C713.603 613.904 713.027 612.792 713.067 611.778C713.31 605.589 714.331 599.402 714.276 593.167C714.617 592.791 714.958 592.416 715.299 592.04Z"/><path fill="#7E4C4A" transform="scale(0.5 0.5)" d="M314.932 636.372C316.722 638.167 323.288 659.276 323.148 662.142C320.309 656.659 316.191 642.55 314.932 636.372Z"/><path fill="#7E4C4A" transform="scale(0.5 0.5)" d="M710.899 544.313C712.21 548.568 714.887 562.909 714.395 567.169L713.664 566.507C712.949 562.879 709.959 546.807 710.899 544.313Z"/><path fill="#7E4C4A" transform="scale(0.5 0.5)" d="M456.421 782.929C459.363 781.682 470.04 785.196 473.642 786.215L474.628 787.534C468.472 786.365 462.392 784.827 456.421 782.929Z"/><path fill="#7E4C4A" transform="scale(0.5 0.5)" d="M714.566 567.684C715.194 570.147 716.283 579.668 715.098 581.766L714.122 581.918C713.37 579.53 713.231 570.261 714.566 567.684Z"/><path fill="#7E4C4A" transform="scale(0.5 0.5)" d="M675.031 466.208C671.249 464.375 665.701 456.881 663.409 453.266L663.652 452.712C666.516 455.252 672.712 462.735 675.031 466.208Z"/><path fill="#7E4C4A" transform="scale(0.5 0.5)" d="M670.156 716.087C669.874 715.207 669.936 715.299 669.856 714.364C672.259 710.509 673.342 709.257 676.431 705.863L677.536 706.646C675.887 709.018 672.262 714.201 670.156 716.087Z"/><path fill="#7E4C4A" transform="scale(0.5 0.5)" d="M536.569 789.399L536.72 788.763C539.003 787.872 549.998 785.926 552.405 786.948C548.724 788.045 540.444 789.395 536.569 789.399Z"/><path fill="#7E4C4A" transform="scale(0.5 0.5)" d="M327.706 673.02C329.834 673.834 332.027 679.51 333.056 681.788C332.941 682.855 333.13 682.457 332.72 683.066C331.555 681.954 328.128 674.906 327.706 673.02Z"/><path fill="#7E4C4A" transform="scale(0.5 0.5)" d="M706.724 528.669C705.516 525.443 701.265 519.787 702.755 516.27C704.601 520.217 705.935 524.384 706.724 528.669Z"/><path fill="#7E4C4A" transform="scale(0.5 0.5)" d="M487.762 789.573C490.465 788.446 494.369 788.583 497.2 789.071C498.023 789.677 498.03 789.589 498.667 790.357C495.744 790.792 490.742 789.999 487.762 789.573Z"/><path fill="#7E4C4A" transform="scale(0.5 0.5)" d="M680.194 702.609L679.791 701.432C680.574 698.787 682.037 696.824 683.919 694.883L685.05 695.678C683.801 697.585 681.672 701.077 680.194 702.609Z"/><path fill="#7E4C4A" transform="scale(0.5 0.5)" d="M575.464 780.97L575.858 779.817C577.961 778.752 581.843 777.11 584.158 777.822C580.72 779.312 579.056 779.964 575.464 780.97Z"/><path fill="#7E4C4A" transform="scale(0.5 0.5)" d="M526.362 790.496C529.122 788.055 532.362 788.596 535.754 789.407C533.255 790.037 529.015 790.414 526.362 790.496Z"/><path fill="#7E4C4A" transform="scale(0.5 0.5)" d="M707.769 644.324C707.04 641.621 707.952 638.303 709.997 636.424C709.317 639.881 709.127 641.044 707.769 644.324Z"/><path fill="#7E4C4A" transform="scale(0.5 0.5)" d="M552.963 786.951C553.804 784.557 557.005 784.645 559.043 785.368C556.731 786.095 555.385 786.56 552.963 786.951Z"/><path fill="#411B19" transform="scale(0.5 0.5)" d="M457.424 497.297L568.108 464.789C577.508 462.016 586.936 459.334 596.389 456.745C600.674 455.567 611.166 452.853 614.94 451.178C615.485 489.826 614.993 529.685 615.011 568.416L615.032 614.901C615.033 619.73 615.625 641.301 613.978 644.725C613.143 645.873 613.248 647.057 613.139 648.519C613.563 649.665 612.699 651.49 612.203 652.685C598.961 684.576 544.754 692.345 529.937 657.792C527.686 652.542 526.781 643.9 529.131 638.464C530.924 634.601 531.629 630.94 534.357 625.646C535.547 618.268 554.861 606.707 561.894 604.98C569.793 603.04 583.361 601.459 590.787 605.486C592.554 605.704 594.714 606.282 595.986 605.426C595.072 578.094 595.316 547.63 595.654 520.182C592.252 521.075 591.225 521.182 587.78 521.455C559.478 529.339 531.327 537.989 503.054 546.013C499.856 546.921 484.912 550.787 482.535 552.185C480.451 553.464 479.13 553.99 476.92 554.925C476.364 564.599 476.885 577.154 476.902 587.054C476.817 605.975 476.85 624.896 477.001 643.817C477.095 655.682 478.169 673.606 475.779 684.704C468.809 717.071 418.211 730.1 397.159 705.545C391.363 698.679 388.622 689.743 389.57 680.808C392.382 651.665 431.236 632.45 457.463 645.439L457.422 544.879L457.344 515.043C457.317 509.894 457.056 502.277 457.424 497.297Z"/><path fill="#795655" transform="scale(0.5 0.5)" d="M457.424 497.297L568.108 464.789C577.508 462.016 586.936 459.334 596.389 456.745C600.674 455.567 611.166 452.853 614.94 451.178C615.485 489.826 614.993 529.685 615.011 568.416L615.032 614.901C615.033 619.73 615.625 641.301 613.978 644.725C614.283 623.243 614 601.1 613.995 579.565L614.066 452.44L458.016 497.865C457.686 532.906 458.77 568.107 458.448 603.138C458.326 616.394 458.909 633.341 458.069 646.325C444.982 640.646 431.591 640.56 418.218 646.395C399.348 654.629 382.895 676.924 393.197 697.87C409.496 729.789 463.317 719.997 473.847 688.245C477.245 677.999 475.941 656.436 475.94 645.131L475.904 578.45C475.9 574.33 475.542 557.393 476.524 554.589C478.243 552.707 480.02 552.606 482.535 552.185C480.451 553.464 479.13 553.99 476.92 554.925C476.364 564.599 476.885 577.154 476.902 587.054C476.817 605.975 476.85 624.896 477.001 643.817C477.095 655.682 478.169 673.606 475.779 684.704C468.809 717.071 418.211 730.1 397.159 705.545C391.363 698.679 388.622 689.743 389.57 680.808C392.382 651.665 431.236 632.45 457.463 645.439L457.422 544.879L457.344 515.043C457.317 509.894 457.056 502.277 457.424 497.297Z"/><path fill="#795655" transform="scale(0.5 0.5)" d="M613.139 648.519C613.563 649.665 612.699 651.49 612.203 652.685C598.961 684.576 544.754 692.345 529.937 657.792C527.686 652.542 526.781 643.9 529.131 638.464C528.86 650.094 528.49 658.936 537.457 668.04C559.641 690.563 602.455 678.589 612.632 649.412C612.845 648.801 612.792 648.928 613.139 648.519Z"/><path fill="#795655" transform="scale(0.5 0.5)" d="M595.813 518.985C596.958 527.477 596.529 543.836 596.534 552.754C596.629 571.017 596.57 589.281 596.357 607.544C594.85 607.062 592.024 606.291 590.787 605.486C592.554 605.704 594.714 606.282 595.986 605.426C595.072 578.094 595.316 547.63 595.654 520.182C592.252 521.075 591.225 521.182 587.78 521.455C590.506 520.729 593.131 519.851 595.813 518.985Z"/><path fill="#795655" transform="scale(0.5 0.5)" d="M534.357 625.646C535.547 618.268 554.861 606.707 561.894 604.98C569.793 603.04 583.361 601.459 590.787 605.486L589.872 605.402C585.7 604.986 583.092 604.092 578.039 603.833C565.993 603.216 555.416 606.854 545.92 614.224C541.904 617.341 538.012 622.084 534.357 625.646Z"/><path fill="#411B19" transform="scale(0.5 0.5)" d="M462.809 501.998C470.502 498.994 484.459 495.312 492.748 492.85C512.482 486.884 532.267 481.091 552.102 475.472L583.559 466.28C589.471 464.508 603.084 460.29 608.924 459.634C609.88 467.267 609.449 485.456 609.46 493.888L609.487 558.108L609.565 611.572C609.592 618.667 609.944 635.865 609.13 642.32C608.359 648.028 606.044 653.417 602.436 657.906C589.273 674.592 560.957 681.116 543.558 667.214C529.683 656.128 530.481 637.506 541.493 624.855C557.021 607.017 580.861 602.979 600.949 615.498C602.044 584.278 601.169 552.124 600.831 520.848C600.812 519.099 600.086 515.522 598.898 514.166C595.177 513.56 586.209 516.662 582.005 517.724C556.611 525.31 531.164 532.714 505.665 539.937C495.686 542.764 483.338 546.643 473.48 549.021C470.068 555.11 471.12 568.205 471.148 575.841L471.38 647.327C471.315 658.51 472.627 677.174 468.818 687.304C460.797 708.635 429.489 719.055 409.797 707.893C380.155 690.074 401.187 653.21 428.279 648.01C437.563 646.229 444.763 646.03 453.508 649.924C454.599 650.415 459.948 652.924 460.538 653.075C460.943 652.83 461.934 652.575 462.44 652.418C463.913 649.129 462.805 526.184 463.017 511.754C462.853 508.336 462.755 505.414 462.809 501.998Z"/><path fill="#A27D7A" transform="scale(0.5 0.5)" d="M462.809 501.998C470.502 498.994 484.459 495.312 492.748 492.85C512.482 486.884 532.267 481.091 552.102 475.472L583.559 466.28C589.471 464.508 603.084 460.29 608.924 459.634C609.88 467.267 609.449 485.456 609.46 493.888L609.487 558.108L609.565 611.572C609.592 618.667 609.944 635.865 609.13 642.32C608.359 648.028 606.044 653.417 602.436 657.906C589.273 674.592 560.957 681.116 543.558 667.214C529.683 656.128 530.481 637.506 541.493 624.855C557.021 607.017 580.861 602.979 600.949 615.498C602.044 584.278 601.169 552.124 600.831 520.848C600.812 519.099 600.086 515.522 598.898 514.166C595.177 513.56 586.209 516.662 582.005 517.724C582.962 514.897 596.206 514.387 599.486 511.737C601.569 513.169 603.685 514.319 603.864 517.007C604.692 529.43 604.424 543.02 604.452 555.466L604.429 591.905C604.405 599.145 604.623 608.274 603.852 615.268L600.594 618.666C594.542 615.418 591.613 613.988 584.801 612.04C560.96 605.474 525.002 633.033 539.893 658.036C555.75 684.658 605.342 668.57 606.356 639.519C606.854 625.239 606.464 608.507 606.438 594.205L606.36 497.281C606.413 486.966 605.861 472.369 606.287 462.58L465.978 503.852L465.896 576.178C465.883 583.728 466.516 602.425 465.897 608.873L466.059 633.823C466.083 638.663 466.899 649.269 464.159 652.902L463.214 653.188L462.44 652.418C463.913 649.129 462.805 526.184 463.017 511.754C462.853 508.336 462.755 505.414 462.809 501.998Z"/><path fill="#AD8B86" transform="scale(0.5 0.5)" d="M463.017 511.754C463.476 508.506 463.725 506.575 463.825 503.274C467.721 505.593 463.359 605.091 465.897 608.873L466.059 633.823C466.083 638.663 466.899 649.269 464.159 652.902L463.214 653.188L462.44 652.418C463.913 649.129 462.805 526.184 463.017 511.754Z"/><defs><linearGradient id="gradient_0" gradientUnits="userSpaceOnUse" x1="524.12659" y1="682.26941" x2="479.15454" y2="544.98389"><stop offset="0" stop-color="#9B7170"/><stop offset="1" stop-color="#AE8882"/></linearGradient></defs><path fill="url(#gradient_0)" transform="scale(0.5 0.5)" d="M471.895 546.716C478.201 544.532 486.683 542.284 493.204 540.359L540.452 526.71L572.257 517.504C579.014 515.53 592.965 510.51 599.486 511.737C596.206 514.387 582.962 514.897 582.005 517.724C556.611 525.31 531.164 532.714 505.665 539.937C495.686 542.764 483.338 546.643 473.48 549.021C470.068 555.11 471.12 568.205 471.148 575.841L471.38 647.327C471.315 658.51 472.627 677.174 468.818 687.304C460.797 708.635 429.489 719.055 409.797 707.893C380.155 690.074 401.187 653.21 428.279 648.01C437.563 646.229 444.763 646.03 453.508 649.924C454.599 650.415 459.948 652.924 460.538 653.075C461.22 654.219 461.144 654.274 461.379 655.612C460.113 657.258 454.811 653.833 452.719 652.802C423.283 638.298 376.556 678.581 409.394 704.232C427.972 718.744 467.648 702.567 467.84 677.02C467.921 666.254 467.943 654.73 467.995 643.602C468.229 622.169 468.332 600.735 468.304 579.3C468.271 570.757 467.64 560.833 468.671 552.437C468.826 551.178 471.087 547.939 471.895 546.716Z"/><path fill="#795655" transform="scale(0.5 0.5)" d="M405.878 166.597C413.457 165.397 445.139 163.739 453.047 166.393C472.823 174.161 498.156 183.507 513.247 198.614C516.597 201.969 512.959 208.923 508.629 211.062C490.95 219.795 471.133 217.993 452.273 215.047C450.952 214.841 447.915 215.242 446.708 216.135C439.221 223.683 451.968 236.243 456.622 241.888C463.396 250.104 472.522 255.21 480.427 261.864C482.931 263.972 473.644 268.889 472.12 270.009C448.614 288.014 454.25 312.146 477.155 326.77C500.787 341.861 522.064 341.756 547.783 347.54L549.407 347.646L549.486 348.14C546.741 348.705 546.166 348.564 543.36 348.178C541.14 348.098 538.922 347.966 536.708 347.779C512.463 345.841 479.39 337.38 462.955 318.397C451.381 305.029 450.976 287.029 463.212 274.123C467.652 269.44 472.268 266.794 477.232 262.772C464.783 253.862 453.259 244.737 445.122 231.472C441.709 225.909 439.145 215.327 447.357 212.789C452.544 211.185 460.557 213.588 465.982 213.967C480.377 215.529 495.391 215.124 508.294 207.899C522.205 199.56 488.115 184.457 482.535 181.803C472.954 177.245 460.371 170.206 449.852 168.592C438.207 166.804 424.172 167.836 412.179 167.84C421.367 175.363 427.723 187.757 413.519 195.327C410.958 196.691 404.821 197.37 401.744 197.751C379.568 200.5 358.708 205.404 338.908 216.095C352.26 217.346 367.918 227.989 353.499 241.01C348.749 245.299 336.055 250.024 329.693 253.176C311.389 262.245 298.72 273.613 284.411 287.845C294.032 286.454 305.245 284.563 312.578 292.971C319.862 301.99 312.317 306.035 305.841 311.827C289.404 326.525 271.249 341.193 256.865 357.874C254.684 360.404 260.986 369.637 262.648 372.464L275.981 395.052C278.817 399.852 282.477 405.008 284.289 410.29C285.084 412.607 285.248 415.324 284.996 417.747C284.023 427.084 274.188 438.542 269.357 446.774C266.565 451.533 264.113 456.516 261.651 461.452C258.493 467.785 255.652 474.213 252.83 480.702C251.111 484.654 249.478 489.312 247.128 492.908C245.157 495.923 241.885 498.571 238.589 499.988C227.92 504.577 185.557 503.741 180.83 508.454C179.416 509.863 178.978 511.867 178.613 513.753C176.787 523.179 176.437 533.27 175.495 542.851C174.069 557.354 172.329 571.835 171.1 586.356C170.893 588.799 170.42 592.514 171.683 594.693C174.964 600.355 214.723 609.072 223.789 613.724C226.988 615.365 229.818 617.444 232.091 620.253C237.753 627.254 238.641 641.151 240.661 649.99C243.149 660.445 246.371 670.712 250.304 680.715C252.89 687.312 256.722 694.221 258.005 701.196C258.778 705.398 257.88 710.485 255.963 714.279C250.984 724.136 219.229 752.856 218.997 759.752C218.954 761.041 219.386 762.436 220.02 763.551C223.388 769.481 228.839 775.247 233.049 780.638C243.38 793.932 253.861 807.109 264.489 820.166C266.272 822.341 269.362 826.788 272.046 827.721C280.771 830.755 318.792 801.294 334.601 803.313C341.155 804.15 352.955 814.127 358.924 818.046C369.432 824.939 380.395 831.112 391.737 836.523C397.476 839.298 404.23 841.489 409.533 844.944C412.806 847.076 415.262 850.486 416.602 854.125C420.692 865.233 418.11 907.392 423.317 913.422C424.322 914.585 425.347 915.103 426.807 915.534C432.815 917.306 439.604 917.72 445.808 918.544C456.937 920.026 468.074 921.437 479.221 922.775C487.79 923.797 502.161 925.699 510.823 925.463C514.056 925.375 517.967 912.084 519.27 908.357L527.619 884.583C535.785 861.462 537.7 863.668 560.638 859.54C569.341 857.999 577.965 856.044 586.482 853.682C593.114 851.774 599.677 849.632 606.158 847.261C610.495 845.663 615.356 843.257 619.896 842.46C623.763 841.782 627.836 842.644 631.287 844.438C641.207 849.596 672.203 882.876 678.346 882.881C680.329 882.883 682.545 881.339 684.162 880.301C692.864 874.712 740.811 839.733 746.342 832.953C747.784 831.184 748.113 829.634 747.803 827.381C747.222 823.155 744.667 818.979 742.744 815.211C738.008 805.931 724.679 783.714 724.006 774.395C723.726 770.572 724.548 766.749 726.376 763.379C727.572 761.171 729.134 759.113 730.663 757.134C741.173 743.595 751.129 729.782 758.792 714.396C762.064 707.825 765.402 699.545 770.266 694.057C776.776 686.711 788.03 687.308 796.988 686.904C809.095 686.358 821.374 685.943 833.501 685.607C837.757 685.568 840.428 683.204 841.11 678.985C844.459 658.238 847.3 637.365 850.278 616.557C851.062 611.079 852.466 602.4 851.907 597.011C848.449 590.194 806.348 580.781 796.739 572.883C793.695 570.38 792.154 567.237 791.038 563.518C788.446 554.873 788.352 544.911 786.702 535.983C784.393 523.484 780.477 511.757 777.03 499.568C776.164 496.508 775.109 493.281 774.822 490.112C774.56 487.211 774.736 484.125 775.958 481.437C781.139 470.035 805.524 451.082 814.241 439.696C815.186 438.462 816.217 437.381 816.077 435.751C815.516 429.228 782.505 385.074 776.094 376.477C774.115 373.823 766.72 365.684 766.423 363.295L767.323 363.078C771.684 364.724 776.089 372.112 778.955 376.002C785.157 384.391 791.284 392.835 797.335 401.333C804.539 411.474 812.403 422.033 818.488 432.806C821.19 437.59 812.685 445.564 809.739 448.576L792.577 466.029C788.348 470.309 783.85 474.242 780.531 479.278C774.557 488.339 779.287 495.828 781.897 504.832C784.065 512.314 786.38 519.78 787.969 527.42C789.192 533.558 790.26 539.725 791.171 545.917C792.385 554.293 792.197 566.131 800.18 571.896C810.257 579.174 846.524 586.768 853.631 593.753C854.57 596.016 855.02 599.527 854.784 601.952C852.243 628.042 847.705 654.032 843.732 679.944C843.071 684.256 841.409 685.565 837.905 687.897L805.086 689.269C772.134 690.537 775.954 687.695 760.884 716.541C757.718 722.554 754.357 728.462 750.806 734.257C747.624 739.427 744.013 744.455 740.317 749.274C735.908 755.022 729.977 761.067 727.499 767.97C726.523 770.688 726.402 773.477 727.021 776.289C730.037 789.978 750.981 817.749 750.605 829.426C750.5 832.686 748.599 834.543 746.377 836.698C739.943 842.938 685.666 884.54 679.696 885.373C677.28 885.709 674.727 884.73 672.717 883.473C668.281 880.697 664.378 876.447 660.503 872.928C654.033 867.029 647.519 861.177 640.963 855.374C633.52 848.786 627.791 842.662 616.935 846.268C611.187 848.177 605.535 850.493 599.812 852.439C594.327 854.245 588.788 855.881 583.201 857.346C576.758 859.069 570.254 860.553 563.7 861.793C557.533 862.916 548.203 863.251 542.684 865.828C539.632 867.253 537.145 869.71 535.358 872.539C531.217 879.094 523.539 903.773 520.631 912.595C519.172 917.023 517.913 923.274 514.357 926.516C511.948 928.711 508.742 928.398 505.712 928.27C495.669 927.847 429.427 920.499 423.793 917.222C421.607 915.949 420.139 913.825 419.351 911.453C415.111 898.689 419.315 858.537 410.911 850C405.1 844.097 395.15 841.221 387.777 837.572C382.499 834.96 377.345 832.112 372.158 829.324C365.965 825.995 360.064 822.238 354.253 818.285C348.733 814.53 342.518 809.035 336.235 806.879C321.393 801.786 287.953 830.938 271.37 830.385C269.712 829.387 268.281 828.307 266.949 826.889C259.946 819.433 217.565 766.983 216.656 761.841C216.218 759.367 217.01 757.061 218.244 754.935C220.192 751.577 223.193 748.634 225.737 745.717C232.53 737.929 248.896 721.25 253.123 713.487C254.979 710.079 256.104 706.003 255.443 702.111C254.456 696.3 251.241 690.562 249.014 685.139C246.544 679.123 244.364 672.85 242.454 666.632C240.383 659.889 238.253 652.951 236.807 646.048C235.572 640.152 234.864 633.932 233.079 628.181C232.125 625.107 230.696 622.105 228.271 619.919C220.962 613.331 195.202 606.934 184.72 603.59C180.768 602.329 176.454 601.265 172.818 599.25C171.125 598.311 169.149 596.89 168.654 594.899C167.418 589.927 174.696 513.02 177.153 508.854C178.439 506.673 180.401 505.203 182.77 504.348C186.736 502.917 191.372 502.96 195.546 502.575C206.022 501.607 225.296 500.862 234.73 498.238C238.186 497.276 241.736 495.565 243.944 492.643C247.346 488.139 248.958 481.975 251.208 476.841C253.896 470.762 256.768 464.767 259.821 458.863C263.28 451.991 267.027 445.268 271.051 438.711C284.733 416.437 287.136 419.408 273.094 395.67L260.386 373.92C251.247 358.214 251.391 358.464 264.184 346.032C273.71 336.895 283.446 327.978 293.384 319.289C298.869 314.506 308.595 306.98 313.061 301.223C315.22 298.439 308.937 292.472 305.925 291.097C297.188 287.107 286.25 290.606 277.531 293.288C290.696 274.682 311.411 259.522 331.802 249.206C338.462 245.821 346.65 243.77 352.324 238.826C356.449 235.233 359.056 229.665 354.572 225.207C347.93 218.604 340.448 218.473 331.778 218.322C342.384 208.058 375.551 198.943 390.695 196.818C396.614 195.299 404.598 195.756 410.241 193.559C429.579 186.03 415.404 173.393 405.878 166.597Z"/><path fill="#7E4C4A" transform="scale(0.5 0.5)" d="M547.783 347.54L549.407 347.646L549.486 348.14C546.741 348.705 546.166 348.564 543.36 348.178C544.797 348.087 546.352 347.778 547.783 347.54Z"/><path fill="#411B19" transform="scale(0.5 0.5)" d="M490.002 300.426C488.09 300.664 479.548 298.501 478.353 297.039C478.973 295.388 488.84 291.27 491.174 289.959C497.453 286.673 502.521 283.44 507.838 278.653C512.069 274.843 518.394 264.009 512.443 259.082C509.374 256.542 502.845 254.999 498.924 253.323C486.495 248.008 474.253 241.568 464.46 232.071C463.255 230.902 463.105 230.456 463.188 229.204C465.629 228.043 473.636 230.051 476.685 230.328C492.609 231.771 517.104 229.573 529.635 218.651C533.481 215.299 535.736 210.897 535.958 205.781C537.015 181.541 475.776 160.842 458.196 151C443.652 142.858 430.259 133.343 418.762 121.174C414.757 116.934 410.846 112.614 407.433 107.874C402.28 100.715 388.986 78.0752 389.579 69.6809C389.649 68.6809 389.507 69.0809 390.316 68.3476L391.782 69.1321C393.763 71.03 398.1 74.8532 399.091 77.0293L399.817 77.5656C405.979 82.1818 412.467 88.6944 419.127 93.6675C444.17 112.604 472.656 126.489 503.001 134.549C508.316 135.964 516.607 138.4 522.086 139.033C522.642 139.098 523.033 138.504 523.575 137.998C519.468 135.081 515.509 131.536 511.379 128.478L510.209 128.587C499.487 119.527 484.482 96.3203 485.42 81.9963L485.94 81.4452C487.47 81.8978 490.934 86.6016 492.064 87.9941C510.464 110.67 535.563 126.103 562.122 137.51C567.78 139.94 574.179 141.405 579.708 143.775C580.495 146.336 581.546 150.905 582.951 152.713C586.18 151.524 596.23 147.56 599.113 148.64C624.235 158.057 649.068 168.961 673.755 179.546C687.779 185.559 689.993 189.816 693.435 203.955C693.567 204.09 693.697 204.227 693.831 204.36C699.705 210.194 742.72 228.099 749.926 227.875C759.843 227.567 763.501 215.274 773.616 224.647C783.203 233.531 791.281 256.801 791.54 269.584C791.76 280.447 787.846 289.909 780.231 297.654C777.814 300.112 774.967 302.114 772.195 304.149C770.307 297.515 767.91 287.617 761.349 283.948C758.955 282.608 756.052 282.847 754.348 281.105L753.903 281.178C752.921 282.178 750.107 283.29 748.234 285.295C743.974 289.855 734.032 297.097 727.56 296.98L726.625 296.485C726.329 290.545 731.372 282.768 726.165 277.396C721.462 272.544 680.891 265.458 672.711 265.985C664.171 266.535 657.893 272.682 651.048 276.912C668.734 291.217 689.151 304.189 707.379 317.91C708.995 319.127 712.637 320.918 714.558 320.957C720.56 321.091 730.028 309.305 732.724 308.181C736.574 312.053 734.957 324.976 734.64 330.182C742.721 329.902 747.652 328.252 754.631 323.946C754.144 331.68 753.05 338.596 748.527 345.049C734.943 364.432 710.449 379.326 686.606 378.598C698.264 354.806 679.179 343.18 659.924 334.313C633.817 322.292 602.344 319.413 574.131 323.983C567.931 324.936 561.77 326.133 555.664 327.57C552.064 328.443 548.47 329.398 544.868 330.247C543.471 330.576 538.921 332.034 538.225 330.852C541.302 322.975 546.703 314.769 543.003 306.066C540.726 300.71 535.721 299.86 532.397 297.924L532.116 298.023C525.241 300.479 495.649 304.966 490.376 300.481L490.002 300.426Z"/><path fill="#413231" transform="scale(0.5 0.5)" d="M649.874 276.838C654.18 273.636 664.991 265.562 670.534 265.298C686.806 264.646 703.756 269.917 719.694 273.063C732.836 275.656 729.976 287.571 726.885 296.902C736.552 293.397 741.43 290.611 748.966 283.416C750.88 281.589 751.537 281.036 753.903 281.178C752.921 282.178 750.107 283.29 748.234 285.295C743.974 289.855 734.032 297.097 727.56 296.98L726.625 296.485C726.329 290.545 731.372 282.768 726.165 277.396C721.462 272.544 680.891 265.458 672.711 265.985C664.171 266.535 657.893 272.682 651.048 276.912C668.734 291.217 689.151 304.189 707.379 317.91C708.995 319.127 712.637 320.918 714.558 320.957C720.56 321.091 730.028 309.305 732.724 308.181C736.574 312.053 734.957 324.976 734.64 330.182C742.721 329.902 747.652 328.252 754.631 323.946C754.144 331.68 753.05 338.596 748.527 345.049C734.943 364.432 710.449 379.326 686.606 378.598C698.264 354.806 679.179 343.18 659.924 334.313C633.817 322.292 602.344 319.413 574.131 323.983C567.931 324.936 561.77 326.133 555.664 327.57C552.064 328.443 548.47 329.398 544.868 330.247C543.471 330.576 538.921 332.034 538.225 330.852C541.302 322.975 546.703 314.769 543.003 306.066C540.726 300.71 535.721 299.86 532.397 297.924C532.76 297.772 533.138 297.573 533.567 297.628C544.272 298.975 546.875 311.488 543.874 320.256C542.145 325.306 541.133 327.368 537.385 331.202C545.471 329.054 553.655 326.737 561.899 324.976C597.598 317.351 637.133 319.883 669.38 338.048C677.57 342.661 686.852 348.776 690.296 357.948C692.972 365.072 691.259 371.196 688.085 377.686C712.017 378.146 741.117 360.322 750.889 338.315C752.586 334.494 753.282 329.171 753.866 325.068C746.598 329.96 741.935 331.126 733.308 331.254C734.267 322.637 734.481 316.676 733.072 308.186C727.423 314.7 717.754 326.147 708.61 319.81C692.959 308.964 677.678 297.614 662.301 286.379C658.26 283.427 653.478 280.26 649.874 276.838Z"/><path fill="#413231" transform="scale(0.5 0.5)" d="M511.379 128.478L510.209 128.587C499.487 119.527 484.482 96.3203 485.42 81.9963L485.94 81.4452C487.47 81.8978 490.934 86.6016 492.064 87.9941C510.464 110.67 535.563 126.103 562.122 137.51C567.78 139.94 574.179 141.405 579.708 143.775C580.495 146.336 581.546 150.905 582.951 152.713C586.18 151.524 596.23 147.56 599.113 148.64C624.235 158.057 649.068 168.961 673.755 179.546C687.779 185.559 689.993 189.816 693.435 203.955C693.567 204.09 693.697 204.227 693.831 204.36C699.705 210.194 742.72 228.099 749.926 227.875C759.843 227.567 763.501 215.274 773.616 224.647C783.203 233.531 791.281 256.801 791.54 269.584C791.76 280.447 787.846 289.909 780.231 297.654C777.814 300.112 774.967 302.114 772.195 304.149C770.307 297.515 767.91 287.617 761.349 283.948C758.955 282.608 756.052 282.847 754.348 281.105C766.416 281.269 770.462 292.942 772.223 302.83C795.991 287.706 793.005 262.688 782.695 240.334C778.784 231.853 774.746 224.006 765.199 221.258C761.264 223.355 754.124 230.109 749.419 228.919C732.162 224.554 715.779 217.038 699.538 209.671C687.487 204.204 693.085 190.213 681.832 184.615C656.302 171.915 628.89 161.74 602.578 150.749C591.486 146.115 587.004 155.374 582.373 153.406C580.786 151.296 579.962 147.679 579.153 145.032C576.164 143.447 573.3 142.46 570.109 141.328C541.379 131.131 513.422 114.325 493.502 90.9991C491.309 88.4316 489.381 85.7273 486.985 83.351C485.968 85.2402 487.864 90.9656 488.462 93.1154C492.43 107.369 500.789 118.402 511.379 128.478Z"/><path fill="#413231" transform="scale(0.5 0.5)" d="M490.002 300.426C488.09 300.664 479.548 298.501 478.353 297.039C478.973 295.388 488.84 291.27 491.174 289.959C497.453 286.673 502.521 283.44 507.838 278.653C512.069 274.843 518.394 264.009 512.443 259.082C509.374 256.542 502.845 254.999 498.924 253.323C486.495 248.008 474.253 241.568 464.46 232.071C463.255 230.902 463.105 230.456 463.188 229.204C465.629 228.043 473.636 230.051 476.685 230.328C492.609 231.771 517.104 229.573 529.635 218.651C533.481 215.299 535.736 210.897 535.958 205.781C537.015 181.541 475.776 160.842 458.196 151C443.652 142.858 430.259 133.343 418.762 121.174C414.757 116.934 410.846 112.614 407.433 107.874C402.28 100.715 388.986 78.0752 389.579 69.6809C389.649 68.6809 389.507 69.0809 390.316 68.3476L391.782 69.1321C390.993 70.2715 390.465 70.9159 390.916 72.4634C401.833 109.866 432.581 137.644 466.585 154.553C472.905 157.624 479.93 160.286 486.184 163.368C501.885 171.106 522.661 179.673 533.099 194.205C547.079 213.666 522.561 226.897 506.465 229.734C496.258 231.534 487.11 231.917 476.886 231.358C473.228 231.173 468.326 229.913 464.945 230.113L464.781 230.583C472.322 240.931 494.343 250.808 506.257 254.951C526.276 261.913 511.9 277.871 501.193 285.108C494.247 290.078 487.45 292.576 480.255 296.744C482.57 298.712 488.309 298.676 490.002 300.426Z"/><path fill="#413231" transform="scale(0.5 0.5)" d="M399.091 77.0293L399.817 77.5656C405.979 82.1818 412.467 88.6944 419.127 93.6675C444.17 112.604 472.656 126.489 503.001 134.549C508.316 135.964 516.607 138.4 522.086 139.033C522.642 139.098 523.033 138.504 523.575 137.998C525.125 139.34 525.416 139.291 525.639 140.885C524.061 141.596 508.885 137.094 506.252 136.434C469.162 127.147 434.893 109.07 405.974 84.0986C404.399 82.7386 399.203 78.6301 399.091 77.0293Z"/><path fill="#795655" transform="scale(0.5 0.5)" d="M490.376 300.481C496.203 300.05 505.251 301.868 512.789 300.996C518.313 300.357 528.068 297.924 532.116 298.023C525.241 300.479 495.649 304.966 490.376 300.481Z"/><path fill="#411B19" transform="scale(0.5 0.5)" d="M402.583 87.8575C406.447 90.6654 410.178 93.6463 413.953 96.5222C441.88 117.793 473.108 133.387 507.315 141.549C515.417 143.483 525.915 146.187 534.298 146.616C533.611 140.123 525.009 133.971 520.286 129.941C515.062 125.484 510.438 121.153 505.928 115.933C501.793 110.974 500.666 109.377 498.261 103.447C517.404 119.331 531.35 130.418 554.596 140.46C560.738 143.114 570.813 145.759 575.759 148.139C576.487 150.843 577.616 156.827 580.662 157.836C586.667 159.824 591.914 153.06 598.067 154.724C608.866 157.644 619.671 162.797 630.037 167.072C640.129 171.207 650.194 175.407 660.232 179.671C667.376 182.723 680.562 187.336 684.45 193.649C688.669 200.498 686.33 208.607 695.994 213.207C711.462 220.57 728.041 227.14 744.357 232.422C759.938 237.61 764.771 217.369 774.667 235.036C784.425 252.455 794.463 279.459 775.471 294.642C772.424 287.19 768.883 280.915 761.198 277.323C749.787 271.989 743.564 283.691 734.335 288.789C734.225 280.331 733.15 271.505 723.066 269.084C706.834 265.187 689.515 260.884 672.816 260.35C663.848 260.14 648.876 270.278 643.672 277.237C647.676 282.209 655.526 287.319 660.86 291.14C675.754 301.806 690.393 313.009 705.608 323.2C716.133 330.25 720.849 324.315 729.516 319.153C728.674 336.749 729.146 337.829 747.34 333.398C741.628 352.224 714.265 371.596 695.08 372.791C696.665 364.983 697.32 358.249 692.28 351.202C679.809 333.767 651.252 323.256 631.227 319.416C611.225 315.581 589.125 315.631 569.019 318.757C561.863 319.869 554.868 321.853 548.017 322.988C551.158 311.197 551.487 297.647 536.47 293.849C530.144 292.249 520.464 295.376 513.717 296.182C506.69 297.061 499.572 296.924 492.584 295.775C503.546 288.822 517.474 281.717 520.597 267.626C523.954 252.475 504.098 250.045 494.452 245.357C489.841 243.081 484.45 239.758 480.366 236.64C486.973 236.635 492.392 236.115 498.957 235.655C526.409 233.735 560.092 212.037 530.439 184.27C513.435 168.349 488.36 160.027 467.187 149.567C449.34 140.868 433.341 128.805 420.068 114.04C413.828 107.049 405.916 96.6838 402.583 87.8575Z"/><defs><linearGradient id="gradient_1" gradientUnits="userSpaceOnUse" x1="608.66217" y1="154.03998" x2="533.85474" y2="314.19205"><stop offset="0" stop-color="#6B4948"/><stop offset="1" stop-color="#846260"/></linearGradient></defs><path fill="url(#gradient_1)" transform="scale(0.5 0.5)" d="M402.583 87.8575C406.447 90.6654 410.178 93.6463 413.953 96.5222C441.88 117.793 473.108 133.387 507.315 141.549C515.417 143.483 525.915 146.187 534.298 146.616L534.385 147.26C530.41 151.368 514.831 146.16 509.594 144.872C472.396 135.722 440.882 120.604 410.652 97.0916C414.011 103.666 420.992 111.45 426.249 116.874C436.438 127.384 448.12 136.335 460.919 143.437C483.488 155.678 542.345 174.045 544.19 204.512C545.733 229.989 509.918 238.528 489.436 239.08C497.363 244.074 515.655 249.321 520.116 255.188C531.714 270.439 512.964 285.974 501.042 293.766C504.995 293.95 511.212 293.8 515.096 293.108C528.006 290.81 540.282 285.957 549.309 299.414C553.63 305.857 553.464 311.826 551.996 319.285C570.368 315.193 580.388 313.612 599.629 313.595C631.445 313.567 666.743 322.154 690.423 344.612C698.16 351.951 699.163 359.091 699.017 369.028C699.618 368.92 700.216 368.796 700.809 368.654C718.245 364.352 733.269 353.321 742.597 337.975L741.953 338.026C729.638 338.973 726.589 337.686 726.344 324.785C714.724 331.499 711.047 330.718 700.249 323.072C683.617 311.294 667.223 299.198 650.689 287.269C637.733 277.916 639.587 275.525 650.414 267.269C667.048 254.586 678.407 256.69 697.809 260.796C706.186 262.568 716.453 264.169 724.779 266.917C733.183 269.691 736.292 276.379 736.604 284.776C741.956 280.61 744.443 276.874 750.565 273.533C765.332 273.056 769.843 278.763 776.748 290.366C782.306 282.962 784.496 276.467 783.527 267.06C782.582 257.896 774.516 236.512 767.694 230.882C762.571 229.853 755.107 236.637 750.395 236.148C739.098 234.975 726.181 228.709 715.474 224.617C706.949 221.36 691.02 215.924 686.77 207.764C683.865 201.614 684.547 194.012 677.214 190.605C651.316 178.572 623.701 166.368 596.844 156.704C584.042 160.199 578.89 167.096 573.23 150.007C555.122 145.385 524.942 129.706 511.03 117.25C508.979 114.896 508.823 114.405 505.928 115.933C501.793 110.974 500.666 109.377 498.261 103.447C517.404 119.331 531.35 130.418 554.596 140.46C560.738 143.114 570.813 145.759 575.759 148.139C576.487 150.843 577.616 156.827 580.662 157.836C586.667 159.824 591.914 153.06 598.067 154.724C608.866 157.644 619.671 162.797 630.037 167.072C640.129 171.207 650.194 175.407 660.232 179.671C667.376 182.723 680.562 187.336 684.45 193.649C688.669 200.498 686.33 208.607 695.994 213.207C711.462 220.57 728.041 227.14 744.357 232.422C759.938 237.61 764.771 217.369 774.667 235.036C784.425 252.455 794.463 279.459 775.471 294.642C772.424 287.19 768.883 280.915 761.198 277.323C749.787 271.989 743.564 283.691 734.335 288.789C734.225 280.331 733.15 271.505 723.066 269.084C706.834 265.187 689.515 260.884 672.816 260.35C663.848 260.14 648.876 270.278 643.672 277.237C647.676 282.209 655.526 287.319 660.86 291.14C675.754 301.806 690.393 313.009 705.608 323.2C716.133 330.25 720.849 324.315 729.516 319.153C728.674 336.749 729.146 337.829 747.34 333.398C741.628 352.224 714.265 371.596 695.08 372.791C696.665 364.983 697.32 358.249 692.28 351.202C679.809 333.767 651.252 323.256 631.227 319.416C611.225 315.581 589.125 315.631 569.019 318.757C561.863 319.869 554.868 321.853 548.017 322.988C551.158 311.197 551.487 297.647 536.47 293.849C530.144 292.249 520.464 295.376 513.717 296.182C506.69 297.061 499.572 296.924 492.584 295.775C503.546 288.822 517.474 281.717 520.597 267.626C523.954 252.475 504.098 250.045 494.452 245.357C489.841 243.081 484.45 239.758 480.366 236.64C486.973 236.635 492.392 236.115 498.957 235.655C526.409 233.735 560.092 212.037 530.439 184.27C513.435 168.349 488.36 160.027 467.187 149.567C449.34 140.868 433.341 128.805 420.068 114.04C413.828 107.049 405.916 96.6838 402.583 87.8575Z"/><path fill="#795655" transform="scale(0.5 0.5)" d="M505.928 115.933C508.823 114.405 508.979 114.896 511.03 117.25C510.145 123.746 540.372 134.676 534.385 147.26L534.298 146.616C533.611 140.123 525.009 133.971 520.286 129.941C515.062 125.484 510.438 121.153 505.928 115.933Z"/><path fill="#EDEBEB" transform="scale(0.5 0.5)" d="M621.999 186.025C624.847 185.906 626.527 186.109 629.263 186.782C647.861 191.36 661.863 197.91 672.242 214.319C660.13 216.484 646.799 215.703 639.555 204.732C633.455 195.494 632.63 191.014 621.999 186.025Z"/></svg>